<svg width="256" height="256" viewBox="0 0 256 256" fill="none" xmlns="http://www.w3.org/2000/svg">
<path d="M0 48C0 21.4903 21.4903 0 48 0H208C234.51 0 256 21.4903 256 48V237C256 247.493 247.493 256 237 256H48C21.4903 256 0 234.51 0 208V48Z" fill="#FF9000"/>
<path d="M98.0469 220V204.619L111.67 201.982V110.137L98.0469 107.5V92.0312H158.691C168.535 92.0312 176.973 93.5547 184.004 96.6016C191.035 99.6484 196.426 104.014 200.176 109.697C203.984 115.381 205.889 122.207 205.889 130.176C205.889 137.676 204.014 144.385 200.264 150.303C196.514 156.221 191.299 160.879 184.619 164.277C177.939 167.676 170.234 169.404 161.504 169.463H137.334V201.982L151.045 204.619V220H98.0469ZM180.4 220L158.867 164.717L181.982 159.004L200.615 202.07L211.514 204.619V220H180.4ZM137.334 149.688H158.252C165.635 149.688 171.143 148.135 174.775 145.029C178.467 141.865 180.312 137.295 180.312 131.318C180.312 125.4 178.496 120.684 174.863 117.168C171.23 113.594 165.84 111.807 158.691 111.807H137.334V149.688Z" fill="#232129"/>
</svg>
